<?xml version="1.0" standalone="no"?><!DOCTYPE svg PUBLIC "-//W3C//DTD SVG 1.1//EN" "http://www.w3.org/Graphics/SVG/1.1/DTD/svg11.dtd"><svg t="1741088486458" class="icon" viewBox="0 0 1024 1024" version="1.1" xmlns="http://www.w3.org/2000/svg" p-id="9491" xmlns:xlink="http://www.w3.org/1999/xlink" width="200" height="200"><path d="M959.102 408.842c-5.228-15.818-19.572-26.813-38.609-29.626l-254.308-36.599-113.816-228.034c-8.446-17.027-23.595-27.215-40.35-27.215-16.756 0-31.907 10.188-40.35 27.215L357.852 342.617l-254.308 36.599c-19.036 2.682-33.381 13.808-38.609 29.626-5.228 15.818 0 33.113 13.674 46.385L262.673 632.72l-43.435 250.691c-2.548 15.014 0.67 28.823 9.384 38.877 7.776 9.116 19.304 14.344 31.773 14.344 8.044 0 16.22-2.144 24.264-6.3l227.364-118.24 227.498 118.374c20.376 10.59 43.167 6.97 56.037-8.044 8.58-10.054 11.933-23.862 9.25-38.877l-43.435-250.691 184.063-177.493c13.8-13.406 18.76-30.835 13.666-46.519z m-255.383 189.56c-7.642 7.375-11.126 18.099-9.384 28.555l39.412 227.632-206.583-107.517a32.702 32.702 0 0 0-30.296 0L290.284 854.589l39.413-227.632c1.876-10.456-1.742-21.046-9.384-28.555L153.276 437.263l230.982-33.247c10.59-1.474 19.706-8.178 24.532-17.563l103.226-207.256 103.226 207.119c4.692 9.518 13.942 16.086 24.532 17.563l230.985 33.247-167.04 161.276z" p-id="9492" fill="#1296db"></path></svg>