<?xml version="1.0" standalone="no"?><!DOCTYPE svg PUBLIC "-//W3C//DTD SVG 1.1//EN" "http://www.w3.org/Graphics/SVG/1.1/DTD/svg11.dtd"><svg t="1742740108285" class="icon" viewBox="0 0 1024 1024" version="1.1" xmlns="http://www.w3.org/2000/svg" p-id="20867" xmlns:xlink="http://www.w3.org/1999/xlink" width="200" height="200"><path d="M19.098 385.17a41.447 41.447 0 0 0 27.442 28.707l378.43 120.496a16.118 16.118 0 0 1 10.459 10.439l121.686 379.76c6.98 21.784 30.294 33.796 52.073 26.83a41.374 41.374 0 0 0 27.373-28.743L832.605 187.88c5.894-22.093-7.24-44.794-29.338-50.703a41.41 41.41 0 0 0-21.45 0.014L48.304 334.43c-21.825 5.869-34.853 28.13-29.406 49.971l0.2 0.77z" fill="#1296db" p-id="20868"></path></svg>