<?xml version="1.0" standalone="no"?><!DOCTYPE svg PUBLIC "-//W3C//DTD SVG 1.1//EN" "http://www.w3.org/Graphics/SVG/1.1/DTD/svg11.dtd"><svg t="1741791162302" class="icon" viewBox="0 0 1024 1024" version="1.1" xmlns="http://www.w3.org/2000/svg" p-id="18208" xmlns:xlink="http://www.w3.org/1999/xlink" width="200" height="200"><path d="M511.9168 0c-225.92 0-409.6 183.68-409.6 409.6 0 212.48 268.16 614.4 409.6 614.4s409.6-401.92 409.6-614.4c0-225.92-183.68-409.6-409.6-409.6z m0 921.6c-71.04-10.24-307.2-332.16-307.2-512 0-169.6 137.6-307.2 307.2-307.2s307.2 137.6 307.2 307.2c0 179.84-236.16 501.76-307.2 512z m0-409.6a102.4 102.4 0 1 0 0-204.8 102.4 102.4 0 0 0 0 204.8z" fill="#1296db" p-id="18209"></path></svg>