<?xml version="1.0" standalone="no"?><!DOCTYPE svg PUBLIC "-//W3C//DTD SVG 1.1//EN" "http://www.w3.org/Graphics/SVG/1.1/DTD/svg11.dtd"><svg t="1744199272029" class="icon" viewBox="0 0 1024 1024" version="1.1" xmlns="http://www.w3.org/2000/svg" p-id="21317" xmlns:xlink="http://www.w3.org/1999/xlink" width="200" height="200"><path d="M56.838315 455.237503a455.009998 455.009998 0 0 1 910.019996 0c0 341.257498-455.009998 568.762497-455.009998 568.762497s-455.009998-227.78938-455.009998-568.762497z m113.7525 0c0 205.49389 236.150189 373.278827 341.940013 437.947123 127.630304-77.237947 340.63186-246.44479 340.63186-437.947123a341.257498 341.257498 0 0 0-682.514997 0z m170.628749 0a170.628749 170.628749 0 1 1 170.628749 170.628749 170.628749 170.628749 0 0 1-170.628749-170.628749z m113.752499 0a56.87625 56.87625 0 1 0 56.87625-56.87625 56.87625 56.87625 0 0 0-56.87625 56.87625z" fill="#d81e06" p-id="21318"></path></svg>