<?xml version="1.0" standalone="no"?><!DOCTYPE svg PUBLIC "-//W3C//DTD SVG 1.1//EN" "http://www.w3.org/Graphics/SVG/1.1/DTD/svg11.dtd"><svg t="1741009243189" class="icon" viewBox="0 0 1024 1024" version="1.1" xmlns="http://www.w3.org/2000/svg" p-id="5370" xmlns:xlink="http://www.w3.org/1999/xlink" width="200" height="200"><path d="M769.9 942.3H266c-59.5 0-107.9-48.2-107.9-107.4V185.7c0-59.2 48.4-107.4 107.9-107.4h409.2c12.2 0 23.9 4.4 33 12.5l2 1.7 141.7 191.8c16.5 15.7 26 37.5 26 60.4v490.2c-0.1 59.2-48.5 107.4-108 107.4zM266 128.3c-31.9 0-57.9 25.8-57.9 57.4v649.2c0 31.7 26 57.4 57.9 57.4h503.9c31.9 0 57.9-25.8 57.9-57.4V344.7c0-9.5-4.1-18.6-11.2-24.9l-2-1.7-140.2-189.8H266z" fill="#1296db" p-id="5371"></path><path d="M852.8 355.5H716.9c-36 0-65.4-29.3-65.4-65.4V103.3h47.4v186.8c0 9.9 8.1 17.9 17.9 17.9h135.9v47.5zM628.9 410.5H290.8c-13.8 0-25-11.2-25-25s11.2-25 25-25H629c13.8 0 25 11.2 25 25s-11.3 25-25.1 25zM628.9 536.9H290.8c-13.8 0-25-11.2-25-25s11.2-25 25-25H629c13.8 0 25 11.2 25 25-0.1 13.8-11.3 25-25.1 25zM628.9 666.5H290.8c-13.8 0-25-11.2-25-25s11.2-25 25-25H629c13.8 0 25 11.2 25 25s-11.3 25-25.1 25z" fill="#1296db" p-id="5372"></path></svg>