<?xml version="1.0" standalone="no"?><!DOCTYPE svg PUBLIC "-//W3C//DTD SVG 1.1//EN" "http://www.w3.org/Graphics/SVG/1.1/DTD/svg11.dtd"><svg t="1744549611217" class="icon" viewBox="0 0 1024 1024" version="1.1" xmlns="http://www.w3.org/2000/svg" p-id="2367" xmlns:xlink="http://www.w3.org/1999/xlink" width="200" height="200"><path d="M436.842263 93.087566a329.995423 329.995423 0 0 1 0 659.525408 325.806482 325.806482 0 0 1-325.806483-329.529985A325.806482 325.806482 0 0 1 436.842263 93.087566m0-93.087566a418.894049 418.894049 0 0 0-418.894049 423.082989 418.894049 418.894049 0 0 0 418.894049 422.617552 418.894049 418.894049 0 0 0 418.894049-422.617552A418.894049 418.894049 0 0 0 436.842263 0z" fill="#8a8a8a" p-id="2368"></path><path d="M729.137221 681.400986l262.972375 262.972375a46.543783 46.543783 0 0 1 0 66.092172 46.543783 46.543783 0 0 1-65.626734 0l-263.437813-263.437813a46.543783 46.543783 0 0 1 0-65.626734 46.543783 46.543783 0 0 1 66.092172 0z" fill="#8a8a8a" p-id="2369"></path></svg>