<?xml version="1.0" standalone="no"?><!DOCTYPE svg PUBLIC "-//W3C//DTD SVG 1.1//EN" "http://www.w3.org/Graphics/SVG/1.1/DTD/svg11.dtd"><svg t="1741784454662" class="icon" viewBox="0 0 1024 1024" version="1.1" xmlns="http://www.w3.org/2000/svg" p-id="14086" xmlns:xlink="http://www.w3.org/1999/xlink" width="200" height="200"><path d="M512 84.992C276.48 84.992 84.992 276.48 84.992 512S276.48 939.008 512 939.008s427.008-190.976 427.008-427.008-190.976-427.008-427.008-427.008zM777.728 742.4l-49.664 29.696 3.072 4.608c1.024 0 2.56-0.512 3.584-0.512 10.24 0 18.432 7.168 18.432 16.384 0 9.216-8.192 16.384-18.432 16.384s-18.432-7.168-18.432-16.384c0-4.608 2.56-9.216 6.144-12.288l-2.048-3.584-5.632 3.584-168.96-220.16H544.256c-9.216 1.536-18.944-3.584-21.504-12.288 0 0-5.632-18.944-12.8-43.52v20.992c0 6.656-2.56 12.288-6.656 16.896l9.216 48.128c2.048 11.264 7.68 22.016 16.384 31.232l59.392 64-2.56 2.048 29.696 30.208 2.048 2.048c2.048 2.048 2.048 5.632-0.512 7.68l-64 49.664c-3.072 2.048-7.168 1.536-9.216-1.536-0.512-0.512-0.512-1.024-1.024-2.048-5.12-9.728-4.096-20.992 3.072-29.184l12.8-15.36-12.8-12.8-2.56 2.048-59.392-64c-14.848-15.872-24.576-34.816-28.672-55.296l-3.584-16.896-10.752 46.08c-1.536 6.656-2.048 13.824-1.536 20.992l7.68 113.664h-3.584v41.472c0 3.072-2.56 5.632-6.144 5.632H352.768c-4.096 0-6.656-3.072-6.144-6.656 0-0.512 0.512-1.536 0.512-2.048 3.072-10.24 12.288-17.92 24.064-19.968l20.992-4.096v-11.776H389.12l-7.68-113.664c-0.512-11.776 0-23.04 2.56-34.816l19.968-83.968V431.104l-87.04 9.216h-2.048c-5.632 0-10.24-2.56-13.312-6.656l-32.256 9.728L230.912 327.68l69.12-15.36 22.016 91.136 10.24 7.168L404.48 402.944v-66.56c0-18.432 11.776-34.816 28.672-43.008l2.56-10.24c-17.408-7.68-29.184-25.6-29.184-46.08 0-27.648 22.016-50.176 49.664-50.176 27.136 0 49.664 22.528 49.664 50.176 0 16.384-7.68 31.232-19.968 40.448l-0.512 10.24c13.824 1.024 24.064 11.264 24.576 24.064 0.512-4.608 5.12-8.192 10.24-8.192h11.264c24.576 0 45.056 17.92 45.056 39.936v94.72c0 19.456-13.312 35.84-31.744 43.008 7.68 31.232 13.824 58.368 13.824 58.368 1.536 5.632 0 11.264-3.584 15.872l32.256 41.984 56.32-33.792c15.872-9.216 37.376-5.632 47.616 8.192l96.256 128c10.24 13.824 6.144 32.768-9.728 42.496z" fill="#1296db" p-id="14087"></path></svg>